<?xml version="1.0" encoding="UTF-8" standalone="no"?>
<!DOCTYPE svg PUBLIC "-//W3C//DTD SVG 1.1//EN" "http://www.w3.org/Graphics/SVG/1.1/DTD/svg11.dtd">
<svg width="100%" height="100%" viewBox="0 0 788 196" version="1.1" xmlns="http://www.w3.org/2000/svg" xmlns:xlink="http://www.w3.org/1999/xlink" xml:space="preserve" xmlns:serif="http://www.serif.com/" style="fill-rule:evenodd;clip-rule:evenodd;stroke-linejoin:round;stroke-miterlimit:2;">
    <g transform="matrix(1,0,0,1,-22178.592857,-12633.970891)">
        <g transform="matrix(1,0,0,1.954037,0,-11288.168944)">
            <g transform="matrix(1,0,0,0.853147,-1345,1737.566434)">
                <g>
                    <g transform="matrix(4.86207,0,0,2.916518,23523.592857,12348.857436)">
                        <path d="M0,15.696L0,-12.273L8.851,-12.273L8.851,-1.947L22.658,-1.947L22.658,6.018L8.851,6.018L8.851,15.696C8.851,18.764 10.267,19.708 12.214,19.708C14.161,19.708 15.577,18.764 15.577,15.696L15.577,14.811L24.428,14.811L24.428,15.696C24.428,24.015 19.472,27.969 12.214,27.969C4.956,27.969 0,24.015 0,15.696" style="fill:white;"/>
                    </g>
                    <g transform="matrix(4.86207,0,0,2.916518,23651.530944,12391.021822)">
                        <path d="M0,-2.892C0,-12.273 5.428,-16.404 12.509,-16.404C16.64,-16.404 20.121,-14.81 22.304,-11.742C24.487,-14.81 27.909,-16.404 32.099,-16.404C39.18,-16.404 44.608,-12.273 44.608,-2.892L44.608,13.512L35.757,13.512L35.757,-2.892C35.757,-6.786 33.869,-8.143 31.214,-8.143C28.617,-8.143 26.729,-6.786 26.729,-2.892L26.729,13.512L17.878,13.512L17.878,-2.892C17.878,-6.786 15.99,-8.143 13.394,-8.143C10.738,-8.143 8.851,-6.786 8.851,-2.892L8.851,13.512L0,13.512L0,-2.892Z" style="fill:white;"/>
                    </g>
                    <g transform="matrix(4.86207,0,0,2.916518,23882.290269,12391.534838)">
                        <path d="M0,-3.244C0,-12.332 5.311,-16.58 13.099,-16.58C20.888,-16.58 26.14,-12.39 26.198,-3.185L26.198,-3.009L17.348,-3.009L17.348,-3.244C17.348,-7.139 15.577,-8.319 13.099,-8.319C10.621,-8.319 8.851,-7.139 8.851,-3.244L8.851,13.336L0,13.336L0,-3.244Z" style="fill:white;"/>
                    </g>
                    <g transform="matrix(4.86207,0,0,2.916518,24023.53888,12382.59017)">
                        <path d="M0,2.89L0,-13.513L8.851,-13.513L8.851,2.89C8.851,6.784 10.738,8.141 13.394,8.141C15.99,8.141 17.878,6.784 17.878,2.89L17.878,-13.513L26.729,-13.513L26.729,2.89C26.729,6.784 28.617,8.141 31.214,8.141C33.869,8.141 35.757,6.784 35.757,2.89L35.757,-13.513L44.608,-13.513L44.608,2.89C44.608,12.272 39.18,16.403 32.099,16.403C27.909,16.403 24.487,14.809 22.304,11.741C20.121,14.809 16.64,16.403 12.509,16.403C5.428,16.403 0,12.272 0,2.89" style="fill:white;"/>
                    </g>
                </g>
                <g transform="matrix(1,0,0,0.599851,154.298206,5142.840389)">
                    <circle cx="24128.5" cy="12120.5" r="28.5" style="fill:rgb(69,137,255);"/>
                    <path d="M24128.5,12092C24144.23,12092 24157,12104.77 24157,12120.5C24157,12136.23 24144.23,12149 24128.5,12149C24112.77,12149 24100,12136.23 24100,12120.5C24100,12104.77 24112.77,12092 24128.5,12092ZM24128.5,12102.417C24118.52,12102.417 24110.417,12110.52 24110.417,12120.5C24110.417,12130.48 24118.52,12138.583 24128.5,12138.583C24138.48,12138.583 24146.583,12130.48 24146.583,12120.5C24146.583,12110.52 24138.48,12102.417 24128.5,12102.417Z" style="fill:rgb(69,137,255);"/>
                </g>
            </g>
        </g>
    </g>
</svg>
