<?xml version="1.0" encoding="UTF-8" standalone="no"?>
<!DOCTYPE svg PUBLIC "-//W3C//DTD SVG 1.1//EN" "http://www.w3.org/Graphics/SVG/1.1/DTD/svg11.dtd">
<svg width="100%" height="100%" viewBox="0 0 193 196" version="1.1" xmlns="http://www.w3.org/2000/svg" xmlns:xlink="http://www.w3.org/1999/xlink" xml:space="preserve" xmlns:serif="http://www.serif.com/" style="fill-rule:evenodd;clip-rule:evenodd;stroke-linejoin:round;stroke-miterlimit:2;">
    <g transform="matrix(1,0,0,1,-24057.80183,-12116.670283)">
        <g transform="matrix(1,0,0,1.954037,0,-11288.168944)">
            <g transform="matrix(1,0,0,0.853147,3.283113,1800.870954)">
                <g transform="matrix(4.86207,0,0,2.916518,24054.518717,11964.352965)">
                    <path d="M0,15.696L0,-12.273L8.851,-12.273L8.851,-1.947L22.658,-1.947L22.658,6.018L8.851,6.018L8.851,15.696C8.851,18.764 10.267,19.708 12.214,19.708C14.161,19.708 15.577,18.764 15.577,15.696L15.577,14.811L24.428,14.811L24.428,15.696C24.428,24.015 19.472,27.969 12.214,27.969C4.956,27.969 0,24.015 0,15.696" style="fill:rgb(18,22,25);"/>
                </g>
                <g transform="matrix(1,0,0,0.599851,90.015093,4758.335627)">
                    <circle cx="24128.5" cy="12120.5" r="28.5" style="fill:rgb(15,98,254);"/>
                    <path d="M24128.5,12092C24144.23,12092 24157,12104.77 24157,12120.5C24157,12136.23 24144.23,12149 24128.5,12149C24112.77,12149 24100,12136.23 24100,12120.5C24100,12104.77 24112.77,12092 24128.5,12092ZM24128.5,12102.417C24118.52,12102.417 24110.417,12110.52 24110.417,12120.5C24110.417,12130.48 24118.52,12138.583 24128.5,12138.583C24138.48,12138.583 24146.583,12130.48 24146.583,12120.5C24146.583,12110.52 24138.48,12102.417 24128.5,12102.417Z" style="fill:rgb(15,98,254);"/>
                </g>
            </g>
        </g>
    </g>
</svg>
